<svg xmlns="http://www.w3.org/2000/svg" xmlns:xlink="http://www.w3.org/1999/xlink" width="200" zoomAndPan="magnify" viewBox="0 0 150 149.999998" height="200" preserveAspectRatio="xMidYMid meet" version="1.0"><defs><clipPath id="302d367c89"><path d="M 10.925781 10.925781 L 139.175781 10.925781 L 139.175781 139.175781 L 10.925781 139.175781 Z M 10.925781 10.925781 " clip-rule="nonzero"/></clipPath></defs><g clip-path="url(#302d367c89)"><path fill="#f96300" d="M 123.21875 61.90625 L 92.339844 67.886719 L 118.410156 50.304688 C 118.820312 50.03125 119.210938 49.730469 119.585938 49.414062 C 119.960938 49.09375 120.316406 48.757812 120.65625 48.398438 C 120.992188 48.039062 121.308594 47.664062 121.605469 47.273438 C 121.902344 46.878906 122.175781 46.472656 122.429688 46.046875 C 122.679688 45.625 122.90625 45.191406 123.109375 44.742188 C 123.3125 44.292969 123.492188 43.835938 123.644531 43.367188 C 123.796875 42.898438 123.925781 42.425781 124.027344 41.945312 C 124.125 41.460938 124.199219 40.976562 124.246094 40.484375 C 124.292969 39.996094 124.316406 39.503906 124.308594 39.011719 C 124.300781 38.519531 124.265625 38.03125 124.207031 37.542969 C 124.144531 37.054688 124.058594 36.570312 123.941406 36.09375 C 123.828125 35.613281 123.6875 35.140625 123.523438 34.679688 C 123.355469 34.214844 123.164062 33.761719 122.949219 33.320312 C 122.730469 32.878906 122.492188 32.449219 122.230469 32.035156 C 121.964844 31.617188 121.679688 31.21875 121.371094 30.835938 C 121.066406 30.449219 120.738281 30.082031 120.390625 29.734375 C 120.042969 29.386719 119.675781 29.058594 119.292969 28.75 C 118.90625 28.441406 118.507812 28.15625 118.089844 27.894531 C 117.675781 27.628906 117.246094 27.390625 116.804688 27.171875 C 116.363281 26.957031 115.910156 26.765625 115.445312 26.597656 C 114.984375 26.429688 114.511719 26.289062 114.03125 26.175781 C 113.554688 26.0625 113.070312 25.972656 112.582031 25.910156 C 112.09375 25.851562 111.601562 25.816406 111.109375 25.808594 C 110.617188 25.800781 110.125 25.820312 109.636719 25.867188 C 109.144531 25.914062 108.660156 25.988281 108.179688 26.089844 C 107.695312 26.191406 107.222656 26.316406 106.753906 26.46875 C 106.285156 26.621094 105.828125 26.800781 105.378906 27.003906 C 104.929688 27.207031 104.492188 27.433594 104.070312 27.6875 C 103.648438 27.9375 103.238281 28.210938 102.847656 28.507812 C 102.453125 28.804688 102.078125 29.121094 101.71875 29.460938 C 101.359375 29.796875 101.023438 30.15625 100.703125 30.53125 C 100.382812 30.90625 100.085938 31.296875 99.8125 31.703125 L 82.230469 57.785156 L 88.21875 26.894531 C 88.3125 26.414062 88.378906 25.925781 88.421875 25.433594 C 88.460938 24.945312 88.476562 24.453125 88.460938 23.960938 C 88.449219 23.46875 88.410156 22.980469 88.339844 22.492188 C 88.273438 22.003906 88.179688 21.519531 88.058594 21.042969 C 87.941406 20.566406 87.792969 20.097656 87.621094 19.636719 C 87.449219 19.171875 87.25 18.722656 87.03125 18.285156 C 86.808594 17.84375 86.5625 17.417969 86.292969 17.003906 C 86.023438 16.59375 85.734375 16.195312 85.421875 15.816406 C 85.109375 15.4375 84.777344 15.074219 84.421875 14.730469 C 84.070312 14.386719 83.699219 14.0625 83.3125 13.757812 C 82.925781 13.457031 82.519531 13.175781 82.101562 12.917969 C 81.683594 12.660156 81.25 12.425781 80.804688 12.214844 C 80.359375 12.003906 79.90625 11.816406 79.4375 11.65625 C 78.972656 11.496094 78.5 11.363281 78.019531 11.253906 C 77.539062 11.144531 77.054688 11.0625 76.566406 11.007812 C 76.078125 10.953125 75.585938 10.925781 75.09375 10.925781 C 74.601562 10.921875 74.109375 10.949219 73.617188 11.003906 C 73.128906 11.054688 72.644531 11.136719 72.160156 11.242188 C 71.679688 11.347656 71.207031 11.480469 70.738281 11.640625 C 70.273438 11.800781 69.816406 11.984375 69.371094 12.191406 C 68.921875 12.402344 68.488281 12.636719 68.070312 12.894531 C 67.648438 13.148438 67.242188 13.429688 66.855469 13.730469 C 66.464844 14.035156 66.09375 14.355469 65.738281 14.699219 C 65.382812 15.042969 65.050781 15.402344 64.734375 15.785156 C 64.421875 16.164062 64.128906 16.558594 63.859375 16.972656 C 63.589844 17.382812 63.339844 17.808594 63.117188 18.25 C 62.894531 18.6875 62.695312 19.140625 62.523438 19.601562 C 62.347656 20.0625 62.199219 20.53125 62.078125 21.011719 C 61.957031 21.488281 61.863281 21.96875 61.792969 22.457031 C 61.726562 22.945312 61.683594 23.4375 61.667969 23.929688 C 61.65625 24.421875 61.667969 24.914062 61.707031 25.40625 C 61.746094 25.898438 61.8125 26.386719 61.90625 26.871094 L 67.886719 57.757812 L 50.304688 31.679688 C 50.03125 31.269531 49.734375 30.878906 49.414062 30.503906 C 49.09375 30.128906 48.757812 29.773438 48.398438 29.433594 C 48.042969 29.097656 47.664062 28.777344 47.273438 28.480469 C 46.878906 28.1875 46.472656 27.910156 46.046875 27.660156 C 45.625 27.410156 45.191406 27.179688 44.742188 26.976562 C 44.292969 26.773438 43.835938 26.597656 43.367188 26.445312 C 42.898438 26.289062 42.425781 26.164062 41.941406 26.0625 C 41.460938 25.960938 40.976562 25.890625 40.484375 25.84375 C 39.996094 25.796875 39.503906 25.777344 39.011719 25.78125 C 38.519531 25.789062 38.027344 25.824219 37.539062 25.886719 C 37.050781 25.945312 36.570312 26.035156 36.089844 26.148438 C 35.609375 26.265625 35.140625 26.40625 34.675781 26.570312 C 34.214844 26.738281 33.761719 26.929688 33.320312 27.144531 C 32.878906 27.363281 32.449219 27.601562 32.03125 27.867188 C 31.617188 28.132812 31.21875 28.417969 30.832031 28.726562 C 30.449219 29.03125 30.082031 29.359375 29.734375 29.710938 C 29.386719 30.058594 29.058594 30.421875 28.75 30.808594 C 28.441406 31.191406 28.15625 31.589844 27.894531 32.007812 C 27.628906 32.421875 27.390625 32.851562 27.171875 33.292969 C 26.957031 33.734375 26.765625 34.1875 26.597656 34.652344 C 26.429688 35.113281 26.289062 35.585938 26.175781 36.0625 C 26.0625 36.542969 25.972656 37.027344 25.910156 37.515625 C 25.851562 38.003906 25.816406 38.492188 25.808594 38.984375 C 25.800781 39.476562 25.820312 39.96875 25.867188 40.457031 C 25.914062 40.949219 25.988281 41.433594 26.089844 41.917969 C 26.191406 42.398438 26.316406 42.871094 26.46875 43.339844 C 26.621094 43.808594 26.800781 44.265625 27.003906 44.714844 C 27.207031 45.164062 27.433594 45.597656 27.6875 46.023438 C 27.9375 46.445312 28.210938 46.851562 28.507812 47.246094 C 28.804688 47.640625 29.121094 48.015625 29.460938 48.371094 C 29.796875 48.730469 30.15625 49.070312 30.53125 49.386719 C 30.90625 49.707031 31.296875 50.003906 31.703125 50.277344 L 57.785156 67.859375 L 26.871094 61.90625 C 26.386719 61.8125 25.898438 61.746094 25.40625 61.707031 C 24.914062 61.667969 24.421875 61.65625 23.929688 61.667969 C 23.4375 61.683594 22.945312 61.726562 22.457031 61.792969 C 21.96875 61.863281 21.488281 61.957031 21.011719 62.078125 C 20.53125 62.199219 20.0625 62.347656 19.601562 62.523438 C 19.140625 62.695312 18.6875 62.894531 18.25 63.117188 C 17.808594 63.339844 17.382812 63.589844 16.972656 63.859375 C 16.558594 64.128906 16.164062 64.421875 15.785156 64.734375 C 15.402344 65.050781 15.042969 65.382812 14.699219 65.738281 C 14.355469 66.09375 14.035156 66.464844 13.730469 66.855469 C 13.429688 67.242188 13.148438 67.648438 12.894531 68.070312 C 12.636719 68.488281 12.402344 68.921875 12.191406 69.371094 C 11.984375 69.816406 11.800781 70.273438 11.640625 70.738281 C 11.480469 71.207031 11.347656 71.679688 11.242188 72.160156 C 11.136719 72.644531 11.054688 73.128906 11.003906 73.617188 C 10.949219 74.109375 10.921875 74.601562 10.925781 75.09375 C 10.921875 75.585938 10.949219 76.078125 11.003906 76.566406 C 11.054688 77.058594 11.136719 77.542969 11.242188 78.027344 C 11.347656 78.507812 11.480469 78.980469 11.640625 79.449219 C 11.800781 79.914062 11.984375 80.371094 12.191406 80.816406 C 12.402344 81.261719 12.636719 81.695312 12.894531 82.117188 C 13.148438 82.539062 13.429688 82.941406 13.730469 83.332031 C 14.035156 83.722656 14.355469 84.09375 14.699219 84.449219 C 15.042969 84.804688 15.402344 85.136719 15.785156 85.453125 C 16.164062 85.765625 16.558594 86.058594 16.972656 86.328125 C 17.382812 86.597656 17.808594 86.84375 18.25 87.070312 C 18.6875 87.292969 19.140625 87.492188 19.601562 87.664062 C 20.0625 87.839844 20.53125 87.984375 21.011719 88.109375 C 21.488281 88.230469 21.96875 88.324219 22.457031 88.394531 C 22.945312 88.460938 23.4375 88.503906 23.929688 88.519531 C 24.421875 88.53125 24.914062 88.519531 25.40625 88.480469 C 25.898438 88.441406 26.386719 88.371094 26.871094 88.277344 L 57.757812 82.214844 L 31.679688 99.792969 C 31.269531 100.070312 30.878906 100.367188 30.503906 100.6875 C 30.128906 101.003906 29.773438 101.34375 29.433594 101.703125 C 29.09375 102.058594 28.777344 102.433594 28.480469 102.828125 C 28.183594 103.222656 27.910156 103.628906 27.660156 104.054688 C 27.410156 104.476562 27.179688 104.914062 26.976562 105.359375 C 26.773438 105.808594 26.597656 106.265625 26.441406 106.734375 C 26.289062 107.203125 26.164062 107.679688 26.0625 108.160156 C 25.960938 108.640625 25.890625 109.128906 25.84375 109.617188 C 25.796875 110.109375 25.773438 110.601562 25.78125 111.09375 C 25.789062 111.585938 25.824219 112.074219 25.886719 112.5625 C 25.945312 113.050781 26.035156 113.535156 26.148438 114.015625 C 26.265625 114.492188 26.40625 114.964844 26.570312 115.429688 C 26.738281 115.890625 26.929688 116.34375 27.144531 116.785156 C 27.363281 117.230469 27.601562 117.65625 27.867188 118.074219 C 28.128906 118.488281 28.417969 118.890625 28.726562 119.273438 C 29.03125 119.65625 29.359375 120.023438 29.710938 120.371094 C 30.058594 120.71875 30.421875 121.046875 30.808594 121.355469 C 31.191406 121.664062 31.59375 121.949219 32.007812 122.210938 C 32.421875 122.476562 32.851562 122.714844 33.292969 122.929688 C 33.738281 123.148438 34.191406 123.339844 34.652344 123.503906 C 35.117188 123.671875 35.585938 123.8125 36.066406 123.925781 C 36.542969 124.039062 37.027344 124.128906 37.515625 124.1875 C 38.003906 124.25 38.496094 124.285156 38.988281 124.289062 C 39.480469 124.296875 39.96875 124.277344 40.460938 124.230469 C 40.949219 124.183594 41.4375 124.109375 41.917969 124.007812 C 42.398438 123.90625 42.875 123.78125 43.339844 123.628906 C 43.808594 123.476562 44.265625 123.296875 44.714844 123.09375 C 45.164062 122.890625 45.597656 122.664062 46.023438 122.410156 C 46.445312 122.160156 46.851562 121.886719 47.246094 121.589844 C 47.640625 121.292969 48.015625 120.976562 48.371094 120.636719 C 48.730469 120.300781 49.070312 119.945312 49.386719 119.570312 C 49.707031 119.195312 50.003906 118.800781 50.277344 118.394531 L 67.859375 92.324219 L 61.90625 123.21875 C 61.8125 123.703125 61.746094 124.191406 61.707031 124.683594 C 61.664062 125.175781 61.652344 125.667969 61.667969 126.160156 C 61.679688 126.652344 61.722656 127.144531 61.789062 127.632812 C 61.859375 128.121094 61.953125 128.605469 62.074219 129.082031 C 62.195312 129.558594 62.34375 130.03125 62.519531 130.492188 C 62.691406 130.953125 62.890625 131.402344 63.113281 131.84375 C 63.335938 132.28125 63.585938 132.707031 63.855469 133.121094 C 64.125 133.535156 64.417969 133.929688 64.730469 134.308594 C 65.046875 134.691406 65.378906 135.050781 65.734375 135.394531 C 66.089844 135.738281 66.460938 136.058594 66.851562 136.363281 C 67.242188 136.664062 67.644531 136.945312 68.066406 137.199219 C 68.488281 137.457031 68.921875 137.691406 69.367188 137.902344 C 69.8125 138.109375 70.269531 138.292969 70.738281 138.453125 C 71.203125 138.613281 71.679688 138.742188 72.160156 138.851562 C 72.640625 138.957031 73.128906 139.035156 73.617188 139.089844 C 74.109375 139.140625 74.601562 139.167969 75.09375 139.164062 C 75.585938 139.167969 76.078125 139.140625 76.566406 139.089844 C 77.058594 139.035156 77.542969 138.957031 78.027344 138.847656 C 78.507812 138.742188 78.980469 138.609375 79.449219 138.449219 C 79.914062 138.289062 80.371094 138.105469 80.816406 137.898438 C 81.261719 137.6875 81.695312 137.453125 82.117188 137.199219 C 82.539062 136.941406 82.941406 136.660156 83.332031 136.359375 C 83.722656 136.054688 84.09375 135.734375 84.449219 135.390625 C 84.804688 135.046875 85.136719 134.6875 85.453125 134.304688 C 85.765625 133.925781 86.058594 133.53125 86.328125 133.117188 C 86.597656 132.707031 86.84375 132.28125 87.070312 131.839844 C 87.292969 131.402344 87.492188 130.949219 87.664062 130.488281 C 87.839844 130.027344 87.984375 129.558594 88.109375 129.082031 C 88.230469 128.601562 88.324219 128.121094 88.394531 127.632812 C 88.460938 127.144531 88.503906 126.652344 88.519531 126.160156 C 88.53125 125.667969 88.519531 125.175781 88.480469 124.683594 C 88.441406 124.191406 88.371094 123.703125 88.277344 123.21875 L 82.214844 92.339844 L 99.792969 118.410156 C 100.070312 118.820312 100.367188 119.210938 100.6875 119.585938 C 101.003906 119.960938 101.34375 120.316406 101.703125 120.65625 C 102.058594 120.992188 102.433594 121.3125 102.828125 121.605469 C 103.222656 121.902344 103.628906 122.175781 104.050781 122.429688 C 104.476562 122.679688 104.910156 122.90625 105.359375 123.109375 C 105.808594 123.316406 106.265625 123.492188 106.734375 123.644531 C 107.203125 123.800781 107.675781 123.925781 108.160156 124.027344 C 108.640625 124.128906 109.128906 124.199219 109.617188 124.246094 C 110.105469 124.296875 110.597656 124.316406 111.089844 124.308594 C 111.582031 124.300781 112.074219 124.265625 112.5625 124.207031 C 113.050781 124.144531 113.535156 124.058594 114.011719 123.941406 C 114.492188 123.828125 114.964844 123.6875 115.425781 123.523438 C 115.890625 123.355469 116.34375 123.164062 116.785156 122.949219 C 117.226562 122.730469 117.65625 122.492188 118.074219 122.230469 C 118.488281 121.964844 118.886719 121.679688 119.273438 121.371094 C 119.65625 121.066406 120.023438 120.738281 120.371094 120.390625 C 120.71875 120.042969 121.046875 119.675781 121.355469 119.289062 C 121.664062 118.90625 121.949219 118.503906 122.210938 118.089844 C 122.476562 117.675781 122.714844 117.246094 122.929688 116.800781 C 123.148438 116.359375 123.339844 115.90625 123.503906 115.445312 C 123.671875 114.980469 123.8125 114.507812 123.925781 114.03125 C 124.039062 113.550781 124.128906 113.066406 124.1875 112.578125 C 124.25 112.089844 124.285156 111.601562 124.289062 111.109375 C 124.296875 110.617188 124.277344 110.125 124.230469 109.636719 C 124.183594 109.144531 124.109375 108.660156 124.007812 108.175781 C 123.90625 107.695312 123.78125 107.21875 123.628906 106.753906 C 123.476562 106.285156 123.296875 105.824219 123.09375 105.378906 C 122.890625 104.929688 122.664062 104.492188 122.410156 104.070312 C 122.160156 103.648438 121.886719 103.238281 121.589844 102.847656 C 121.292969 102.453125 120.976562 102.078125 120.636719 101.71875 C 120.300781 101.359375 119.945312 101.023438 119.570312 100.703125 C 119.195312 100.382812 118.800781 100.085938 118.394531 99.8125 L 92.324219 82.230469 L 123.203125 88.21875 C 123.6875 88.3125 124.175781 88.378906 124.664062 88.417969 C 125.15625 88.457031 125.648438 88.472656 126.140625 88.457031 C 126.636719 88.441406 127.125 88.402344 127.613281 88.332031 C 128.101562 88.261719 128.585938 88.167969 129.0625 88.046875 C 129.539062 87.925781 130.011719 87.777344 130.472656 87.601562 C 130.933594 87.429688 131.382812 87.230469 131.824219 87.007812 C 132.261719 86.785156 132.6875 86.535156 133.101562 86.265625 C 133.511719 85.996094 133.910156 85.703125 134.289062 85.390625 C 134.667969 85.074219 135.03125 84.742188 135.375 84.386719 C 135.714844 84.03125 136.039062 83.660156 136.339844 83.273438 C 136.644531 82.882812 136.921875 82.476562 137.179688 82.054688 C 137.4375 81.636719 137.671875 81.203125 137.878906 80.753906 C 138.089844 80.308594 138.273438 79.851562 138.433594 79.386719 C 138.589844 78.917969 138.722656 78.445312 138.832031 77.964844 C 138.9375 77.484375 139.015625 76.996094 139.070312 76.507812 C 139.125 76.015625 139.148438 75.523438 139.148438 75.03125 C 139.148438 74.539062 139.121094 74.050781 139.066406 73.5625 C 139.011719 73.074219 138.929688 72.589844 138.820312 72.109375 C 138.714844 71.632812 138.578125 71.160156 138.417969 70.695312 C 138.257812 70.230469 138.074219 69.773438 137.863281 69.332031 C 137.652344 68.886719 137.421875 68.457031 137.164062 68.035156 C 136.90625 67.617188 136.625 67.214844 136.324219 66.828125 C 136.023438 66.441406 135.699219 66.070312 135.355469 65.71875 C 135.015625 65.363281 134.652344 65.03125 134.273438 64.71875 C 133.894531 64.40625 133.5 64.117188 133.089844 63.847656 C 132.675781 63.578125 132.25 63.332031 131.8125 63.109375 C 131.375 62.890625 130.925781 62.691406 130.464844 62.519531 C 130.003906 62.347656 129.539062 62.199219 129.0625 62.078125 C 128.585938 61.957031 128.105469 61.863281 127.617188 61.792969 C 127.128906 61.726562 126.640625 61.683594 126.148438 61.671875 C 125.660156 61.65625 125.167969 61.667969 124.679688 61.707031 C 124.1875 61.75 123.703125 61.816406 123.21875 61.90625 Z M 123.21875 61.90625 " fill-opacity="1" fill-rule="nonzero"/></g></svg>