<svg xmlns="http://www.w3.org/2000/svg" xmlns:xlink="http://www.w3.org/1999/xlink" width="600" zoomAndPan="magnify" viewBox="0 0 450 149.999998" height="200" preserveAspectRatio="xMidYMid meet" version="1.0"><defs><g/><clipPath id="255f40bfd0"><rect x="0" width="222" y="0" height="150"/></clipPath><clipPath id="01d562d7fd"><path d="M 291.113281 22.917969 L 388.613281 22.917969 L 388.613281 120.417969 L 291.113281 120.417969 Z M 291.113281 22.917969 " clip-rule="nonzero"/></clipPath></defs><g transform="matrix(1, 0, 0, 1, 60, -0.00000000000000755)"><g clip-path="url(#255f40bfd0)"><g fill="#f96300" fill-opacity="1"><g transform="translate(1.13781, 64.841284)"><g><path d="M 0.875 -43.53125 L 18.28125 -43.53125 C 21.257812 -43.53125 24.046875 -43.035156 26.640625 -42.046875 C 29.234375 -41.066406 31.503906 -39.632812 33.453125 -37.75 C 35.410156 -35.875 36.953125 -33.59375 38.078125 -30.90625 C 39.203125 -28.21875 39.765625 -25.171875 39.765625 -21.765625 C 39.765625 -17.273438 38.957031 -13.394531 37.34375 -10.125 C 35.738281 -6.851562 33.347656 -4.335938 30.171875 -2.578125 C 27.003906 -0.816406 23.039062 0.0625 18.28125 0.0625 L 18.28125 14.515625 L 0.875 14.515625 Z M 18.28125 -26.296875 L 18.28125 -16.828125 C 19.0625 -16.828125 19.722656 -17.078125 20.265625 -17.578125 C 20.804688 -18.085938 21.21875 -18.695312 21.5 -19.40625 C 21.789062 -20.125 21.9375 -20.832031 21.9375 -21.53125 C 21.9375 -22.851562 21.578125 -23.976562 20.859375 -24.90625 C 20.148438 -25.832031 19.289062 -26.296875 18.28125 -26.296875 Z M 18.28125 -26.296875 "/></g></g></g><g fill="#f96300" fill-opacity="1"><g transform="translate(40.90191, 64.841284)"><g><path d="M 0.875 0 L 0.875 -26.8125 C 0.875 -30.644531 1.691406 -33.789062 3.328125 -36.25 C 4.972656 -38.707031 7.148438 -40.535156 9.859375 -41.734375 C 12.578125 -42.929688 15.519531 -43.53125 18.6875 -43.53125 L 25.484375 -43.53125 L 25.484375 -26.234375 L 20.03125 -26.234375 C 19.175781 -26.234375 18.671875 -25.90625 18.515625 -25.25 C 18.359375 -24.59375 18.28125 -23.757812 18.28125 -22.75 L 18.28125 0 Z M 0.875 0 "/></g></g></g><g fill="#f96300" fill-opacity="1"><g transform="translate(65.86332, 64.841284)"><g><path d="M 23.21875 0.875 C 19.925781 0.875 16.90625 0.332031 14.15625 -0.75 C 11.414062 -1.832031 9.03125 -3.367188 7 -5.359375 C 4.96875 -7.359375 3.390625 -9.75 2.265625 -12.53125 C 1.140625 -15.320312 0.578125 -18.398438 0.578125 -21.765625 C 0.578125 -25.054688 1.117188 -28.082031 2.203125 -30.84375 C 3.285156 -33.613281 4.832031 -36.003906 6.84375 -38.015625 C 8.863281 -40.035156 11.253906 -41.601562 14.015625 -42.71875 C 16.785156 -43.84375 19.851562 -44.40625 23.21875 -44.40625 C 26.507812 -44.40625 29.523438 -43.863281 32.265625 -42.78125 C 35.015625 -41.695312 37.40625 -40.15625 39.4375 -38.15625 C 41.46875 -36.164062 43.046875 -33.773438 44.171875 -30.984375 C 45.296875 -28.203125 45.859375 -25.128906 45.859375 -21.765625 C 45.859375 -18.398438 45.296875 -15.320312 44.171875 -12.53125 C 43.046875 -9.75 41.46875 -7.359375 39.4375 -5.359375 C 37.40625 -3.367188 35.015625 -1.832031 32.265625 -0.75 C 29.523438 0.332031 26.507812 0.875 23.21875 0.875 Z M 18.28125 -21.828125 C 18.28125 -20.359375 18.722656 -19.164062 19.609375 -18.25 C 20.503906 -17.34375 21.707031 -16.890625 23.21875 -16.890625 C 24.6875 -16.890625 25.882812 -17.34375 26.8125 -18.25 C 27.738281 -19.164062 28.203125 -20.359375 28.203125 -21.828125 C 28.203125 -23.335938 27.738281 -24.546875 26.8125 -25.453125 C 25.882812 -26.359375 24.6875 -26.8125 23.21875 -26.8125 C 21.75 -26.8125 20.554688 -26.359375 19.640625 -25.453125 C 18.734375 -24.546875 18.28125 -23.335938 18.28125 -21.828125 Z M 18.28125 -21.828125 "/></g></g></g><g fill="#f96300" fill-opacity="1"><g transform="translate(111.722647, 64.841284)"><g><path d="M 0.875 -43.53125 L 20.84375 -43.53125 C 24.007812 -43.53125 26.945312 -42.929688 29.65625 -41.734375 C 32.363281 -40.535156 34.539062 -38.707031 36.1875 -36.25 C 37.832031 -33.789062 38.65625 -30.644531 38.65625 -26.8125 L 38.65625 0 L 21.25 0 L 21.25 -22.75 C 21.25 -23.757812 21.179688 -24.59375 21.046875 -25.25 C 20.910156 -25.90625 20.394531 -26.234375 19.5 -26.234375 L 18.28125 -26.234375 L 18.28125 0 L 0.875 0 Z M 0.875 -43.53125 "/></g></g></g><g fill="#f96300" fill-opacity="1"><g transform="translate(150.67405, 64.841284)"><g><path d="M 0.875 -52.234375 L 18.109375 -52.234375 L 18.109375 -43.53125 L 23.921875 -43.53125 L 23.921875 -26.125 L 18.171875 -26.125 L 18.171875 -20.203125 C 18.171875 -19.273438 18.457031 -18.554688 19.03125 -18.046875 C 19.613281 -17.546875 20.296875 -17.296875 21.078125 -17.296875 L 23.859375 -17.234375 L 23.859375 0 L 18.6875 0 C 15.519531 0 12.578125 -0.585938 9.859375 -1.765625 C 7.148438 -2.953125 4.972656 -4.78125 3.328125 -7.25 C 1.691406 -9.726562 0.875 -12.882812 0.875 -16.71875 Z M 0.875 -52.234375 "/></g></g></g><g fill="#f96300" fill-opacity="1"><g transform="translate(174.880811, 64.841284)"><g><path d="M 23.21875 0.875 C 19.925781 0.875 16.90625 0.332031 14.15625 -0.75 C 11.414062 -1.832031 9.03125 -3.367188 7 -5.359375 C 4.96875 -7.359375 3.390625 -9.75 2.265625 -12.53125 C 1.140625 -15.320312 0.578125 -18.398438 0.578125 -21.765625 C 0.578125 -25.054688 1.117188 -28.082031 2.203125 -30.84375 C 3.285156 -33.613281 4.832031 -36.003906 6.84375 -38.015625 C 8.863281 -40.035156 11.253906 -41.601562 14.015625 -42.71875 C 16.785156 -43.84375 19.851562 -44.40625 23.21875 -44.40625 C 26.507812 -44.40625 29.523438 -43.863281 32.265625 -42.78125 C 35.015625 -41.695312 37.40625 -40.15625 39.4375 -38.15625 C 41.46875 -36.164062 43.046875 -33.773438 44.171875 -30.984375 C 45.296875 -28.203125 45.859375 -25.128906 45.859375 -21.765625 C 45.859375 -18.398438 45.296875 -15.320312 44.171875 -12.53125 C 43.046875 -9.75 41.46875 -7.359375 39.4375 -5.359375 C 37.40625 -3.367188 35.015625 -1.832031 32.265625 -0.75 C 29.523438 0.332031 26.507812 0.875 23.21875 0.875 Z M 18.28125 -21.828125 C 18.28125 -20.359375 18.722656 -19.164062 19.609375 -18.25 C 20.503906 -17.34375 21.707031 -16.890625 23.21875 -16.890625 C 24.6875 -16.890625 25.882812 -17.34375 26.8125 -18.25 C 27.738281 -19.164062 28.203125 -20.359375 28.203125 -21.828125 C 28.203125 -23.335938 27.738281 -24.546875 26.8125 -25.453125 C 25.882812 -26.359375 24.6875 -26.8125 23.21875 -26.8125 C 21.75 -26.8125 20.554688 -26.359375 19.640625 -25.453125 C 18.734375 -24.546875 18.28125 -23.335938 18.28125 -21.828125 Z M 18.28125 -21.828125 "/></g></g></g><g fill="#000000" fill-opacity="1"><g transform="translate(1.13781, 128.696039)"><g><path d="M 15.03125 0 L 0 -57.984375 L 17.40625 -57.984375 L 23.328125 -28.96875 L 29.203125 -57.984375 L 43.484375 -57.984375 L 49.390625 -28.96875 L 55.265625 -57.984375 L 72.671875 -57.984375 L 57.640625 0 L 41.09375 0 L 36.34375 -23.5625 L 31.578125 0 Z M 15.03125 0 "/></g></g></g><g fill="#000000" fill-opacity="1"><g transform="translate(73.235638, 128.696039)"><g><path d="M 35.296875 0 L 0.875 0 L 0.875 -57.984375 L 35.296875 -57.984375 L 35.296875 -40.578125 L 18.28125 -40.578125 L 18.28125 -37.671875 L 31.8125 -37.671875 L 31.8125 -20.265625 L 18.28125 -20.265625 L 18.28125 -17.40625 L 35.296875 -17.40625 Z M 35.296875 0 "/></g></g></g><g fill="#000000" fill-opacity="1"><g transform="translate(108.82015, 128.696039)"><g><path d="M 22.875 0 L 0.875 0 L 0.875 -57.984375 L 20.203125 -57.984375 C 24.609375 -57.984375 28.132812 -57.34375 30.78125 -56.0625 C 33.4375 -54.789062 35.351562 -53.039062 36.53125 -50.8125 C 37.71875 -48.59375 38.332031 -46.085938 38.375 -43.296875 C 38.40625 -41.867188 38.242188 -40.3125 37.890625 -38.625 C 37.546875 -36.945312 36.890625 -35.378906 35.921875 -33.921875 C 34.960938 -32.472656 33.550781 -31.382812 31.6875 -30.65625 C 34.050781 -30.113281 35.910156 -29.15625 37.265625 -27.78125 C 38.617188 -26.40625 39.585938 -24.773438 40.171875 -22.890625 C 40.753906 -21.015625 41.046875 -19.035156 41.046875 -16.953125 C 41.046875 -14.941406 40.722656 -12.925781 40.078125 -10.90625 C 39.441406 -8.894531 38.40625 -7.066406 36.96875 -5.421875 C 35.539062 -3.773438 33.675781 -2.457031 31.375 -1.46875 C 29.070312 -0.488281 26.238281 0 22.875 0 Z M 18.28125 -22.921875 L 18.28125 -17.40625 L 20.609375 -17.40625 C 21.648438 -17.40625 22.578125 -17.585938 23.390625 -17.953125 C 24.203125 -18.328125 24.585938 -19.078125 24.546875 -20.203125 C 24.515625 -21.285156 24.117188 -22.007812 23.359375 -22.375 C 22.609375 -22.738281 21.710938 -22.921875 20.671875 -22.921875 Z M 21.125 -40.578125 L 18.28125 -40.578125 L 18.28125 -37.4375 L 21.078125 -37.4375 C 21.921875 -37.4375 22.476562 -37.597656 22.75 -37.921875 C 23.019531 -38.253906 23.15625 -38.597656 23.15625 -38.953125 C 23.15625 -39.378906 23 -39.753906 22.6875 -40.078125 C 22.382812 -40.410156 21.863281 -40.578125 21.125 -40.578125 Z M 21.125 -40.578125 "/></g></g></g><g fill="#000000" fill-opacity="1"><g transform="translate(150.151609, 128.696039)"><g><path d="M 0.875 0 L 0.875 -57.984375 L 18.515625 -57.984375 C 21.722656 -57.984375 24.523438 -57.441406 26.921875 -56.359375 C 29.328125 -55.273438 31.320312 -53.8125 32.90625 -51.96875 C 34.5 -50.132812 35.691406 -48.066406 36.484375 -45.765625 C 37.273438 -43.460938 37.671875 -41.09375 37.671875 -38.65625 C 37.671875 -35.757812 37.253906 -33.03125 36.421875 -30.46875 C 35.585938 -27.914062 34.394531 -25.660156 32.84375 -23.703125 C 31.300781 -21.753906 29.425781 -20.21875 27.21875 -19.09375 C 25.019531 -17.96875 22.523438 -17.390625 19.734375 -17.359375 C 19.503906 -17.359375 19.40625 -17.359375 19.4375 -17.359375 C 19.476562 -17.359375 19.453125 -17.347656 19.359375 -17.328125 C 19.265625 -17.304688 18.90625 -17.296875 18.28125 -17.296875 L 18.28125 0 Z M 18.28125 -40.625 L 18.28125 -31.984375 C 18.820312 -31.984375 19.320312 -32.367188 19.78125 -33.140625 C 20.25 -33.921875 20.484375 -35.0625 20.484375 -36.5625 C 20.484375 -38.070312 20.257812 -39.125 19.8125 -39.71875 C 19.375 -40.320312 18.863281 -40.625 18.28125 -40.625 Z M 18.28125 -40.625 "/></g></g></g></g></g><g clip-path="url(#01d562d7fd)"><path fill="#f96300" d="M 376.484375 61.679688 L 353.007812 66.222656 L 372.832031 52.855469 C 373.140625 52.648438 373.4375 52.421875 373.722656 52.179688 C 374.007812 51.9375 374.277344 51.679688 374.535156 51.40625 C 374.792969 51.136719 375.035156 50.851562 375.257812 50.550781 C 375.484375 50.253906 375.691406 49.941406 375.882812 49.621094 C 376.074219 49.300781 376.246094 48.96875 376.402344 48.628906 C 376.558594 48.289062 376.691406 47.9375 376.808594 47.582031 C 376.925781 47.226562 377.023438 46.867188 377.097656 46.5 C 377.175781 46.132812 377.230469 45.765625 377.265625 45.394531 C 377.300781 45.019531 377.316406 44.648438 377.3125 44.273438 C 377.308594 43.898438 377.28125 43.527344 377.234375 43.15625 C 377.1875 42.785156 377.121094 42.414062 377.035156 42.050781 C 376.949219 41.6875 376.839844 41.328125 376.714844 40.976562 C 376.589844 40.625 376.441406 40.28125 376.277344 39.945312 C 376.113281 39.609375 375.933594 39.28125 375.730469 38.96875 C 375.53125 38.652344 375.316406 38.347656 375.082031 38.054688 C 374.847656 37.761719 374.597656 37.484375 374.332031 37.21875 C 374.070312 36.953125 373.789062 36.707031 373.5 36.472656 C 373.207031 36.238281 372.902344 36.019531 372.585938 35.820312 C 372.269531 35.617188 371.945312 35.4375 371.609375 35.269531 C 371.273438 35.105469 370.929688 34.960938 370.574219 34.835938 C 370.222656 34.707031 369.863281 34.601562 369.5 34.511719 C 369.136719 34.425781 368.769531 34.359375 368.398438 34.3125 C 368.027344 34.265625 367.652344 34.238281 367.277344 34.234375 C 366.90625 34.230469 366.53125 34.242188 366.160156 34.28125 C 365.785156 34.316406 365.417969 34.371094 365.050781 34.449219 C 364.683594 34.523438 364.324219 34.621094 363.964844 34.738281 C 363.609375 34.851562 363.261719 34.988281 362.921875 35.144531 C 362.582031 35.296875 362.25 35.46875 361.925781 35.660156 C 361.605469 35.851562 361.296875 36.0625 360.996094 36.285156 C 360.699219 36.511719 360.410156 36.753906 360.140625 37.011719 C 359.867188 37.265625 359.609375 37.539062 359.367188 37.824219 C 359.125 38.109375 358.898438 38.40625 358.691406 38.714844 L 345.324219 58.542969 L 349.875 35.0625 C 349.945312 34.695312 350 34.324219 350.03125 33.949219 C 350.0625 33.578125 350.070312 33.203125 350.0625 32.828125 C 350.050781 32.457031 350.019531 32.082031 349.96875 31.710938 C 349.917969 31.339844 349.847656 30.972656 349.753906 30.609375 C 349.664062 30.25 349.554688 29.890625 349.421875 29.539062 C 349.289062 29.191406 349.140625 28.847656 348.972656 28.511719 C 348.804688 28.179688 348.617188 27.855469 348.414062 27.542969 C 348.207031 27.226562 347.988281 26.925781 347.75 26.636719 C 347.511719 26.347656 347.257812 26.074219 346.992188 25.8125 C 346.722656 25.550781 346.441406 25.304688 346.144531 25.074219 C 345.851562 24.84375 345.542969 24.628906 345.226562 24.433594 C 344.90625 24.238281 344.578125 24.058594 344.238281 23.898438 C 343.902344 23.738281 343.554688 23.597656 343.203125 23.476562 C 342.847656 23.351562 342.488281 23.25 342.125 23.167969 C 341.757812 23.085938 341.390625 23.023438 341.015625 22.980469 C 340.644531 22.941406 340.273438 22.917969 339.898438 22.917969 C 339.523438 22.917969 339.148438 22.9375 338.777344 22.976562 C 338.402344 23.019531 338.035156 23.078125 337.667969 23.160156 C 337.304688 23.242188 336.941406 23.34375 336.585938 23.460938 C 336.234375 23.582031 335.886719 23.722656 335.546875 23.882812 C 335.207031 24.042969 334.878906 24.21875 334.558594 24.414062 C 334.238281 24.609375 333.929688 24.824219 333.632812 25.054688 C 333.335938 25.28125 333.054688 25.527344 332.785156 25.789062 C 332.515625 26.050781 332.261719 26.324219 332.023438 26.613281 C 331.785156 26.902344 331.5625 27.203125 331.355469 27.515625 C 331.152344 27.828125 330.964844 28.152344 330.792969 28.488281 C 330.625 28.820312 330.472656 29.164062 330.339844 29.515625 C 330.207031 29.867188 330.097656 30.222656 330.003906 30.585938 C 329.910156 30.949219 329.839844 31.316406 329.785156 31.6875 C 329.734375 32.058594 329.703125 32.433594 329.691406 32.804688 C 329.679688 33.179688 329.691406 33.554688 329.722656 33.929688 C 329.75 34.300781 329.800781 34.671875 329.875 35.042969 L 334.417969 58.523438 L 321.054688 38.695312 C 320.84375 38.386719 320.617188 38.089844 320.375 37.804688 C 320.132812 37.519531 319.875 37.246094 319.605469 36.988281 C 319.332031 36.734375 319.046875 36.492188 318.746094 36.265625 C 318.449219 36.042969 318.140625 35.832031 317.816406 35.640625 C 317.496094 35.449219 317.164062 35.277344 316.824219 35.121094 C 316.484375 34.96875 316.132812 34.832031 315.777344 34.714844 C 315.421875 34.601562 315.0625 34.503906 314.695312 34.429688 C 314.328125 34.351562 313.960938 34.296875 313.585938 34.257812 C 313.214844 34.222656 312.839844 34.207031 312.46875 34.214844 C 312.09375 34.21875 311.71875 34.246094 311.347656 34.292969 C 310.976562 34.339844 310.609375 34.40625 310.246094 34.492188 C 309.882812 34.582031 309.523438 34.6875 309.171875 34.8125 C 308.820312 34.941406 308.476562 35.085938 308.140625 35.25 C 307.804688 35.414062 307.476562 35.597656 307.160156 35.800781 C 306.847656 36 306.542969 36.21875 306.25 36.449219 C 305.957031 36.683594 305.679688 36.933594 305.414062 37.199219 C 305.152344 37.464844 304.902344 37.742188 304.667969 38.035156 C 304.433594 38.324219 304.214844 38.628906 304.015625 38.945312 C 303.8125 39.261719 303.632812 39.585938 303.46875 39.925781 C 303.300781 40.261719 303.15625 40.605469 303.03125 40.957031 C 302.902344 41.308594 302.796875 41.667969 302.710938 42.03125 C 302.621094 42.394531 302.554688 42.761719 302.507812 43.132812 C 302.460938 43.503906 302.4375 43.878906 302.429688 44.25 C 302.425781 44.625 302.441406 45 302.476562 45.371094 C 302.511719 45.742188 302.566406 46.113281 302.644531 46.480469 C 302.71875 46.847656 302.816406 47.207031 302.933594 47.5625 C 303.050781 47.917969 303.183594 48.265625 303.339844 48.605469 C 303.492188 48.949219 303.667969 49.28125 303.859375 49.601562 C 304.050781 49.921875 304.257812 50.234375 304.484375 50.53125 C 304.707031 50.832031 304.949219 51.117188 305.207031 51.386719 C 305.464844 51.660156 305.734375 51.917969 306.019531 52.160156 C 306.304688 52.402344 306.601562 52.628906 306.914062 52.835938 L 326.738281 66.203125 L 303.238281 61.679688 C 302.867188 61.605469 302.5 61.554688 302.125 61.527344 C 301.75 61.496094 301.375 61.484375 301.003906 61.496094 C 300.628906 61.507812 300.253906 61.539062 299.882812 61.589844 C 299.511719 61.644531 299.144531 61.714844 298.78125 61.808594 C 298.417969 61.902344 298.0625 62.011719 297.710938 62.144531 C 297.359375 62.277344 297.019531 62.429688 296.683594 62.597656 C 296.347656 62.769531 296.027344 62.957031 295.710938 63.160156 C 295.398438 63.367188 295.097656 63.589844 294.808594 63.828125 C 294.519531 64.066406 294.246094 64.320312 293.984375 64.589844 C 293.722656 64.859375 293.476562 65.140625 293.25 65.4375 C 293.019531 65.734375 292.804688 66.042969 292.609375 66.363281 C 292.414062 66.683594 292.238281 67.011719 292.078125 67.351562 C 291.917969 67.691406 291.78125 68.039062 291.660156 68.390625 C 291.539062 68.746094 291.4375 69.105469 291.355469 69.472656 C 291.273438 69.839844 291.214844 70.207031 291.171875 70.582031 C 291.132812 70.953125 291.113281 71.328125 291.113281 71.703125 C 291.113281 72.078125 291.132812 72.449219 291.171875 72.824219 C 291.214844 73.195312 291.273438 73.566406 291.355469 73.929688 C 291.4375 74.296875 291.539062 74.65625 291.660156 75.011719 C 291.78125 75.367188 291.917969 75.714844 292.078125 76.054688 C 292.238281 76.394531 292.414062 76.722656 292.609375 77.042969 C 292.804688 77.363281 293.019531 77.667969 293.25 77.964844 C 293.476562 78.261719 293.722656 78.546875 293.984375 78.8125 C 294.246094 79.082031 294.519531 79.335938 294.808594 79.578125 C 295.097656 79.816406 295.398438 80.039062 295.710938 80.242188 C 296.027344 80.449219 296.347656 80.636719 296.683594 80.804688 C 297.019531 80.976562 297.359375 81.128906 297.710938 81.257812 C 298.0625 81.390625 298.417969 81.503906 298.78125 81.597656 C 299.144531 81.6875 299.511719 81.761719 299.882812 81.8125 C 300.253906 81.867188 300.628906 81.898438 301.003906 81.90625 C 301.375 81.917969 301.75 81.910156 302.125 81.878906 C 302.5 81.847656 302.867188 81.796875 303.238281 81.726562 L 326.71875 77.113281 L 306.890625 90.480469 C 306.582031 90.691406 306.285156 90.914062 306 91.160156 C 305.714844 91.402344 305.441406 91.65625 305.1875 91.929688 C 304.929688 92.203125 304.6875 92.488281 304.460938 92.785156 C 304.238281 93.085938 304.027344 93.394531 303.835938 93.71875 C 303.644531 94.039062 303.472656 94.371094 303.320312 94.710938 C 303.164062 95.054688 303.027344 95.402344 302.914062 95.757812 C 302.796875 96.113281 302.699219 96.472656 302.625 96.839844 C 302.546875 97.207031 302.492188 97.578125 302.457031 97.949219 C 302.417969 98.320312 302.40625 98.695312 302.410156 99.070312 C 302.414062 99.445312 302.441406 99.816406 302.488281 100.1875 C 302.535156 100.558594 302.601562 100.925781 302.6875 101.292969 C 302.777344 101.65625 302.882812 102.015625 303.011719 102.367188 C 303.136719 102.71875 303.28125 103.0625 303.445312 103.398438 C 303.613281 103.734375 303.792969 104.0625 303.996094 104.378906 C 304.195312 104.691406 304.414062 104.996094 304.648438 105.289062 C 304.882812 105.582031 305.128906 105.859375 305.394531 106.125 C 305.660156 106.390625 305.9375 106.636719 306.230469 106.871094 C 306.523438 107.105469 306.828125 107.324219 307.144531 107.523438 C 307.460938 107.722656 307.785156 107.90625 308.121094 108.070312 C 308.457031 108.234375 308.800781 108.378906 309.152344 108.503906 C 309.503906 108.632812 309.863281 108.738281 310.226562 108.824219 C 310.589844 108.914062 310.960938 108.980469 311.332031 109.027344 C 311.703125 109.070312 312.074219 109.097656 312.449219 109.101562 C 312.824219 109.109375 313.195312 109.09375 313.570312 109.058594 C 313.941406 109.023438 314.308594 108.964844 314.675781 108.890625 C 315.042969 108.8125 315.402344 108.714844 315.757812 108.601562 C 316.113281 108.484375 316.464844 108.347656 316.804688 108.191406 C 317.144531 108.039062 317.476562 107.867188 317.796875 107.675781 C 318.117188 107.484375 318.429688 107.273438 318.726562 107.050781 C 319.027344 106.824219 319.3125 106.582031 319.582031 106.328125 C 319.855469 106.070312 320.113281 105.796875 320.355469 105.511719 C 320.597656 105.226562 320.824219 104.929688 321.03125 104.621094 L 334.398438 84.800781 L 329.875 108.289062 C 329.800781 108.65625 329.75 109.027344 329.71875 109.402344 C 329.691406 109.777344 329.679688 110.148438 329.691406 110.523438 C 329.703125 110.898438 329.734375 111.273438 329.785156 111.644531 C 329.835938 112.015625 329.910156 112.382812 330 112.746094 C 330.09375 113.109375 330.207031 113.464844 330.339844 113.816406 C 330.46875 114.167969 330.621094 114.511719 330.789062 114.84375 C 330.960938 115.179688 331.148438 115.503906 331.355469 115.816406 C 331.558594 116.128906 331.78125 116.429688 332.019531 116.71875 C 332.257812 117.007812 332.515625 117.285156 332.78125 117.542969 C 333.050781 117.804688 333.335938 118.050781 333.632812 118.28125 C 333.929688 118.511719 334.234375 118.722656 334.554688 118.917969 C 334.875 119.113281 335.207031 119.292969 335.546875 119.449219 C 335.882812 119.609375 336.230469 119.75 336.585938 119.871094 C 336.941406 119.992188 337.300781 120.089844 337.667969 120.171875 C 338.035156 120.253906 338.402344 120.3125 338.777344 120.355469 C 339.148438 120.394531 339.523438 120.414062 339.898438 120.410156 C 340.273438 120.414062 340.648438 120.394531 341.019531 120.351562 C 341.390625 120.3125 341.761719 120.25 342.128906 120.171875 C 342.492188 120.089844 342.851562 119.988281 343.207031 119.867188 C 343.5625 119.746094 343.910156 119.605469 344.25 119.449219 C 344.589844 119.289062 344.917969 119.109375 345.238281 118.914062 C 345.558594 118.71875 345.867188 118.507812 346.160156 118.277344 C 346.457031 118.046875 346.742188 117.804688 347.011719 117.542969 C 347.28125 117.28125 347.535156 117.007812 347.773438 116.71875 C 348.011719 116.429688 348.234375 116.128906 348.4375 115.8125 C 348.644531 115.5 348.832031 115.175781 349.003906 114.84375 C 349.171875 114.507812 349.324219 114.167969 349.457031 113.816406 C 349.585938 113.464844 349.699219 113.109375 349.792969 112.746094 C 349.886719 112.382812 349.957031 112.015625 350.007812 111.644531 C 350.0625 111.273438 350.09375 110.898438 350.105469 110.523438 C 350.113281 110.148438 350.105469 109.777344 350.074219 109.402344 C 350.042969 109.027344 349.992188 108.65625 349.921875 108.289062 L 345.3125 84.8125 L 358.675781 104.632812 C 358.886719 104.945312 359.113281 105.242188 359.355469 105.527344 C 359.597656 105.8125 359.855469 106.082031 360.125 106.339844 C 360.398438 106.597656 360.683594 106.839844 360.984375 107.0625 C 361.28125 107.289062 361.59375 107.496094 361.914062 107.6875 C 362.234375 107.878906 362.566406 108.050781 362.90625 108.207031 C 363.25 108.363281 363.597656 108.496094 363.953125 108.613281 C 364.308594 108.730469 364.667969 108.824219 365.035156 108.902344 C 365.402344 108.980469 365.773438 109.035156 366.144531 109.070312 C 366.515625 109.105469 366.890625 109.121094 367.265625 109.117188 C 367.636719 109.113281 368.011719 109.085938 368.382812 109.039062 C 368.753906 108.992188 369.121094 108.925781 369.484375 108.839844 C 369.851562 108.753906 370.207031 108.644531 370.558594 108.519531 C 370.914062 108.394531 371.257812 108.246094 371.59375 108.082031 C 371.929688 107.917969 372.253906 107.738281 372.570312 107.535156 C 372.886719 107.335938 373.191406 107.117188 373.484375 106.886719 C 373.777344 106.652344 374.054688 106.402344 374.320312 106.136719 C 374.585938 105.871094 374.835938 105.59375 375.066406 105.300781 C 375.300781 105.011719 375.519531 104.707031 375.71875 104.390625 C 375.917969 104.074219 376.101562 103.746094 376.265625 103.410156 C 376.429688 103.074219 376.574219 102.730469 376.703125 102.378906 C 376.828125 102.027344 376.933594 101.667969 377.023438 101.304688 C 377.109375 100.9375 377.175781 100.570312 377.222656 100.199219 C 377.269531 99.828125 377.292969 99.457031 377.300781 99.082031 C 377.304688 98.707031 377.289062 98.335938 377.253906 97.960938 C 377.21875 97.589844 377.160156 97.21875 377.085938 96.851562 C 377.007812 96.488281 376.914062 96.125 376.796875 95.769531 C 376.679688 95.414062 376.542969 95.066406 376.390625 94.726562 C 376.234375 94.382812 376.0625 94.054688 375.871094 93.730469 C 375.679688 93.410156 375.472656 93.097656 375.246094 92.800781 C 375.019531 92.5 374.78125 92.214844 374.523438 91.945312 C 374.265625 91.671875 373.996094 91.414062 373.710938 91.171875 C 373.425781 90.929688 373.125 90.703125 372.816406 90.492188 L 352.996094 77.128906 L 376.472656 81.679688 C 376.839844 81.75 377.210938 81.800781 377.585938 81.832031 C 377.957031 81.863281 378.332031 81.871094 378.707031 81.859375 C 379.082031 81.851562 379.453125 81.820312 379.824219 81.765625 C 380.195312 81.714844 380.5625 81.640625 380.925781 81.550781 C 381.289062 81.457031 381.648438 81.34375 382 81.210938 C 382.347656 81.082031 382.691406 80.929688 383.027344 80.757812 C 383.359375 80.589844 383.683594 80.402344 383.996094 80.195312 C 384.308594 79.992188 384.613281 79.769531 384.898438 79.53125 C 385.1875 79.289062 385.464844 79.035156 385.726562 78.765625 C 385.984375 78.5 386.230469 78.214844 386.460938 77.917969 C 386.691406 77.625 386.902344 77.316406 387.097656 76.996094 C 387.292969 76.675781 387.472656 76.347656 387.628906 76.007812 C 387.789062 75.667969 387.929688 75.320312 388.050781 74.964844 C 388.171875 74.609375 388.273438 74.25 388.351562 73.882812 C 388.433594 73.519531 388.496094 73.148438 388.535156 72.777344 C 388.574219 72.402344 388.59375 72.03125 388.59375 71.65625 C 388.59375 71.28125 388.574219 70.910156 388.53125 70.539062 C 388.488281 70.167969 388.429688 69.800781 388.347656 69.433594 C 388.265625 69.070312 388.160156 68.710938 388.039062 68.359375 C 387.917969 68.003906 387.777344 67.660156 387.617188 67.320312 C 387.457031 66.984375 387.28125 66.65625 387.085938 66.335938 C 386.890625 66.019531 386.675781 65.710938 386.445312 65.417969 C 386.21875 65.125 385.972656 64.84375 385.710938 64.574219 C 385.453125 64.304688 385.175781 64.054688 384.890625 63.816406 C 384.601562 63.578125 384.300781 63.359375 383.988281 63.152344 C 383.675781 62.949219 383.351562 62.761719 383.019531 62.59375 C 382.683594 62.425781 382.34375 62.273438 381.992188 62.140625 C 381.644531 62.011719 381.289062 61.898438 380.925781 61.808594 C 380.5625 61.714844 380.199219 61.644531 379.828125 61.589844 C 379.457031 61.539062 379.085938 61.507812 378.714844 61.496094 C 378.339844 61.488281 377.964844 61.496094 377.59375 61.527344 C 377.222656 61.558594 376.851562 61.605469 376.484375 61.679688 Z M 376.484375 61.679688 " fill-opacity="1" fill-rule="nonzero"/></g></svg>